<svg width="900" height="900" viewBox="0 0 900 900" fill="none" xmlns="http://www.w3.org/2000/svg" role="img" aria-labelledby="title desc">
  <title id="title">TenderLyte coconut visual</title>
  <desc id="desc">A premium green tender coconut product visual with droplets and tropical lighting.</desc>
  <defs>
    <radialGradient id="shell" cx="0" cy="0" r="1" gradientUnits="userSpaceOnUse" gradientTransform="translate(362 296) rotate(56) scale(542 428)">
      <stop stop-color="#D7F2B6"/>
      <stop offset="0.33" stop-color="#8FB870"/>
      <stop offset="0.67" stop-color="#315F3B"/>
      <stop offset="1" stop-color="#0B2F22"/>
    </radialGradient>
    <linearGradient id="rim" x1="279" y1="206" x2="624" y2="633" gradientUnits="userSpaceOnUse">
      <stop stop-color="#F6FFE8"/>
      <stop offset="0.32" stop-color="#D5EAB2"/>
      <stop offset="1" stop-color="#446A3E"/>
    </linearGradient>
    <linearGradient id="water" x1="357" y1="242" x2="549" y2="355" gradientUnits="userSpaceOnUse">
      <stop stop-color="#FFFFFF"/>
      <stop offset="0.56" stop-color="#D8F8EE"/>
      <stop offset="1" stop-color="#A0C8B8"/>
    </linearGradient>
    <filter id="shadow" x="148" y="120" width="604" height="684" filterUnits="userSpaceOnUse" color-interpolation-filters="sRGB">
      <feDropShadow dx="0" dy="46" stdDeviation="42" flood-color="#00150E" flood-opacity="0.26"/>
    </filter>
    <filter id="glow" x="-20%" y="-20%" width="140%" height="140%">
      <feGaussianBlur stdDeviation="18" result="blur"/>
      <feColorMatrix in="blur" type="matrix" values="0 0 0 0 0.749 0 0 0 0 0.961 0 0 0 0 0.161 0 0 0 0.38 0"/>
      <feBlend in2="SourceGraphic" mode="screen"/>
    </filter>
  </defs>
  <ellipse cx="456" cy="746" rx="222" ry="42" fill="#00150E" opacity="0.12"/>
  <g filter="url(#shadow)">
    <path d="M579 154C674 223 711 405 663 551C614 702 493 769 364 714C233 659 177 518 220 364C262 211 430 47 579 154Z" fill="url(#shell)"/>
    <path d="M302 228C385 145 518 102 579 154C493 185 406 237 340 315C278 388 235 491 228 604C183 492 211 319 302 228Z" fill="#BDE892" opacity="0.45"/>
    <path d="M577 154C634 197 669 279 678 371C642 314 593 274 524 247C453 220 382 226 318 257C392 178 503 102 577 154Z" fill="#E9FFD0" opacity="0.38"/>
    <path d="M391 160C510 111 628 156 652 263C670 344 604 399 491 385C365 369 289 293 319 226C331 199 356 174 391 160Z" fill="url(#rim)"/>
    <path d="M379 184C477 146 581 180 606 261C631 343 561 370 488 360C398 347 336 297 347 239C351 214 361 192 379 184Z" fill="#F7FFE9" opacity="0.72"/>
    <path d="M391 210C470 176 562 203 579 264C595 320 535 337 480 327C414 316 367 280 371 240C372 227 379 216 391 210Z" fill="url(#water)"/>
    <path d="M290 394C370 314 489 283 620 317" stroke="#F2FFE8" stroke-width="8" stroke-linecap="round" opacity="0.3"/>
    <path d="M255 494C348 433 475 413 635 443" stroke="#E4F6C2" stroke-width="8" stroke-linecap="round" opacity="0.24"/>
    <path d="M325 642C410 602 508 595 609 614" stroke="#092A1F" stroke-width="7" stroke-linecap="round" opacity="0.24"/>
  </g>
  <g filter="url(#glow)" opacity="0.9">
    <circle cx="615" cy="292" r="9" fill="#F8FFEA"/>
    <circle cx="647" cy="354" r="6" fill="#F8FFEA"/>
    <circle cx="274" cy="461" r="7" fill="#F8FFEA"/>
    <circle cx="347" cy="579" r="5" fill="#F8FFEA"/>
    <circle cx="535" cy="625" r="8" fill="#F8FFEA"/>
  </g>
  <path d="M235 181C208 139 202 96 217 52C258 75 284 110 295 158C283 174 263 183 235 181Z" fill="#5F8D4E" opacity="0.78"/>
  <path d="M653 128C676 88 711 63 758 53C759 101 742 142 707 176C685 171 667 155 653 128Z" fill="#88B963" opacity="0.72"/>
</svg>
